<?xml version="1.0" encoding="UTF-8"?>
<svg id="Layer_1" xmlns="http://www.w3.org/2000/svg" version="1.1" viewBox="0 0 1000 1000">
  <!-- Generator: Adobe Illustrator 30.0.0, SVG Export Plug-In . SVG Version: 2.1.1 Build 123)  -->
  <defs>
    <style>
      .st0 {
        fill: #603913;
      }

      .st1 {
        fill: #613811;
      }

      .st2 {
        fill: #fedc99;
      }

      .st3 {
        fill: #fff;
      }

      .st4 {
        fill: #603912;
      }

      .st5 {
        fill: #fcbd7a;
      }

      .st6 {
        fill: #d7ef91;
      }

      .st7 {
        fill: #ae7349;
      }

      .st8 {
        fill: #c8905f;
      }

      .st9 {
        fill: #efaa6c;
      }

      .st10 {
        fill: #b78054;
      }

      .st11 {
        fill: #8e6534;
      }
    </style>
  </defs>
  <circle class="st6" cx="499.5" cy="500.1" r="483.4"/>
  <g>
    <path class="st5" d="M790.6,362.7c-55.9-95.6-150.4-126.4-288.1-131.2h0c0,0-.1,0-.2,0,0,0-.1,0-.2,0h0c-137.7,4.8-232.2,35.6-288.1,131.2-24.6,42.1-27.3,93.3-7.2,137.7,70.3,155.8,182.9,267.2,295.5,261.3,112.6,5.9,225.2-105.4,295.5-261.3,20-44.4,17.4-95.6-7.2-137.7Z"/>
    <path class="st10" d="M690.7,444.5c15.1,58-3.4,116.3-37.4,125.1-34,8.8-73.7-31.1-88.8-89.1-15.1-58,.3-112.2,34.3-121,34-8.8,76.9,27,91.9,85Z"/>
    <g>
      <ellipse class="st4" cx="378" cy="462" rx="22" ry="30.3"/>
      <path class="st3" d="M380.9,450c0,4-3.2,7.3-7.3,7.3s-7.3-3.2-7.3-7.3,3.2-7.3,7.3-7.3,7.3,3.2,7.3,7.3Z"/>
    </g>
    <g>
      <ellipse class="st4" cx="627.5" cy="462" rx="22" ry="30.3"/>
      <circle class="st3" cx="623.1" cy="450" r="7.3"/>
    </g>
    <g>
      <path class="st0" d="M492.9,659.7c-1.2,0-2.2-1-2.2-2.2v-103.4c0-1.2,1-2.2,2.2-2.2s2.2,1,2.2,2.2v103.4c0,1.2-1,2.2-2.2,2.2Z"/>
      <path class="st0" d="M470.6,674.4c-1.2,0-2.3,0-3.5-.3-11.7-1.7-23.9-12.6-23.3-29.2,0-1.2,1-2.1,2.2-2.1,1.2,0,2.1,1,2.1,2.2-.5,14.2,9.8,23.3,19.6,24.8,8.4,1.2,18.9-2.9,22.9-18.2.3-1.2,1.5-1.8,2.6-1.5,1.2.3,1.8,1.5,1.5,2.6-2.1,7.8-6,13.9-11.2,17.6-3.8,2.7-8.3,4-13,4Z"/>
      <path class="st0" d="M515,674.4c-4.7,0-9.2-1.4-13-4-5.3-3.7-9.2-9.8-11.2-17.6-.3-1.2.4-2.3,1.5-2.6,1.2-.3,2.3.4,2.6,1.5,4.1,15.3,14.5,19.4,22.9,18.2,9.9-1.5,20.1-10.7,19.6-24.8,0-1.2.9-2.2,2.1-2.2,1.2,0,2.2.9,2.2,2.1.6,16.7-11.6,27.5-23.3,29.2-1.2.2-2.3.3-3.5.3Z"/>
    </g>
    <path class="st1" d="M557.6,555.5c-9.6-15.7-35.4-18.9-64.8-18.8-29.5.2-55.2,3.6-64.6,19.5-2.6,4.4-2.9,9.8-.7,14.5,6.4,13.6,17.7,23.7,34,39.1,4.8,4.6,10.4,8.3,16.5,10.9,5.2,2.2,10.3,3.4,15.3,3.3,5,0,10.1-1.2,15.3-3.5,6.1-2.7,11.6-6.5,16.3-11.1,16.1-15.6,27.3-25.8,33.6-39.5,2.1-4.7,1.8-10.1-.8-14.5Z"/>
    <path class="st11" d="M498.6,557.7c1.8,7.1-8.8,16-23.7,19.8-14.9,3.9-28.5,1.3-30.4-5.8-1.8-7.1,8.8-16,23.7-19.8,14.9-3.9,28.5-1.3,30.4,5.8Z"/>
    <g>
      <ellipse class="st2" cx="549.6" cy="300" rx="13.3" ry="21.5" transform="translate(103.2 739.1) rotate(-73.2)"/>
      <ellipse class="st2" cx="467.3" cy="296.6" rx="52.1" ry="13.3" transform="translate(-8.6 14.1) rotate(-1.7)"/>
    </g>
    <g>
      <path class="st8" d="M628.3,378.5c-2.4,2.1-1.3,7.4,2.5,11.8,3.8,4.4,8.9,6.2,11.4,4.1,2.4-2.1,1.3-7.4-2.5-11.8-3.8-4.4-8.9-6.2-11.4-4.1Z"/>
      <path class="st8" d="M643.8,399.1c-2.9,1.6-.2,12,6.1,23.3,6.2,11.3,13.6,19.2,16.5,17.6,2.9-1.6.2-12-6.1-23.3-6.2-11.3-13.6-19.2-16.5-17.6Z"/>
    </g>
    <path class="st9" d="M797.9,467.1c-70.3,155.8-182.9,267.2-295.5,261.3-112.6,5.9-225.2-105.4-295.5-261.3-6.5-14.3-10.5-29.3-12.3-44.5-3.1,26.7.9,54,12.3,79.2,70.3,155.8,182.9,267.2,295.5,261.3,112.6,5.9,225.2-105.4,295.5-261.3,11.4-25.2,15.4-52.6,12.3-79.2-1.8,15.2-5.9,30.2-12.3,44.5Z"/>
    <g>
      <path class="st7" d="M264.3,287.3c47.6,16.4-1.9,96.7-3.8,157.8,2.7,138.3,48.2,312.6-45.8,346.6-15.5,5.6-32.6,3.4-46-6.2-46.3-33-102.2-134.4-119.2-202.7-7.3-29.2-2.8-60.1,12.9-85.8,29.8-48.9,72.6-53.9,105.8-101,38.7-55,55.8-120.8,96.2-108.7Z"/>
      <path class="st10" d="M270.5,290.3c11.7,20-24.4,98.2-41.1,173.9-2.6,11.9-3.6,24.1-2.7,36.2,4.5,65,21.4,150.9-17.2,183.8-8.7,7.4-19.9,11.2-31.3,10.1-49.7-4.7-110.2-82-128.5-145-4.1-14-2.3-29.1,5.1-41.7,24.9-42.9,87.8-78.8,116.6-116.9,36.4-61.6,59.7-117.6,99.3-100.5Z"/>
      <path class="st8" d="M172,430.7c4.2,5,.4,15.2-8.6,22.8-9,7.6-19.7,9.7-24,4.7-4.2-5-.4-15.2,8.6-22.8,9-7.6,19.7-9.7,24-4.7Z"/>
      <path class="st8" d="M134.7,467.2c5.3,4-3.3,24-19.2,44.7-15.9,20.6-33,34.1-38.2,30-5.3-4,3.3-24,19.2-44.7s33-34.1,38.2-30Z"/>
    </g>
    <g>
      <path class="st7" d="M728.5,287.3c-47.6,16.4,1.9,96.7,3.8,157.8-2.7,138.3-48.2,312.6,45.8,346.6,15.5,5.6,32.6,3.4,46-6.2,46.3-33,102.2-134.4,119.2-202.7,7.3-29.2,2.8-60.1-12.9-85.8-29.8-48.9-72.6-53.9-105.8-101-38.7-55-55.8-120.8-96.2-108.7Z"/>
      <path class="st10" d="M722.2,290.3c-11.7,20,24.4,98.2,41.1,173.9,2.6,11.9,3.6,24.1,2.7,36.2-4.5,65-21.4,150.9,17.2,183.8,8.7,7.4,19.9,11.2,31.3,10.1,49.7-4.7,110.2-82,128.5-145,4.1-14,2.3-29.1-5.1-41.7-24.9-42.9-87.8-78.8-116.6-116.9-36.4-61.6-59.7-117.6-99.3-100.5Z"/>
      <ellipse class="st8" cx="837.1" cy="444.5" rx="11.9" ry="21.4" transform="translate(-42.8 796.9) rotate(-49.8)"/>
      <ellipse class="st8" cx="886.8" cy="504.5" rx="12" ry="47.1" transform="translate(-123.7 645.4) rotate(-37.6)"/>
    </g>
  </g>
</svg>