<?xml version="1.0" encoding="UTF-8"?>
<svg id="Layer_1" xmlns="http://www.w3.org/2000/svg" version="1.1" viewBox="0 0 1000 1000">
  <!-- Generator: Adobe Illustrator 30.0.0, SVG Export Plug-In . SVG Version: 2.1.1 Build 123)  -->
  <defs>
    <style>
      .st0 {
        fill: #9e693d;
      }

      .st1 {
        fill: #b88653;
      }

      .st2 {
        fill: #603913;
      }

      .st3 {
        fill: #eab372;
      }

      .st4 {
        fill: #fff;
      }

      .st5 {
        fill: #603912;
      }

      .st6 {
        fill: #eec27e;
      }

      .st7 {
        fill: #d6a064;
      }

      .st8 {
        fill: #f1c27e;
      }

      .st9 {
        fill: #cc9054;
      }

      .st10 {
        fill: #fed16c;
      }
    </style>
  </defs>
  <circle class="st10" cx="499.5" cy="500.1" r="483.4"/>
  <g>
    <g>
      <path class="st0" d="M338.3,328.2c-9-90.2-78-130.2-138.1-101.4-29.6,14.2-51.7,40.3-61.7,71.5-19.5,60.7,16.7,110.7,92.4,132.7l107.3-102.8Z"/>
      <g>
        <path class="st6" d="M260.9,403.5l48.6-48.3c-18.4-34.8-38.9-55.2-62.3-54.1-15.3.7-28.6,10.5-34.5,24.6-14.8,35.4,11.3,58.2,48.2,77.8Z"/>
        <path class="st3" d="M294.9,367.9c-18.2-40.9-44.7-59.7-81.6-43.5,7.4-15.3,22.5-26.2,44-22.5,23,4.3,45,36.6,51.9,51.2,2,4.2-12.9,17.6-14.2,14.8Z"/>
      </g>
      <path class="st1" d="M203.4,251.2c2.4,2.8.6,8.2-3.9,12-4.5,3.8-10.1,4.6-12.4,1.8-2.4-2.8-.6-8.2,3.9-12,4.5-3.8,10.1-4.6,12.4-1.8Z"/>
      <path class="st1" d="M172.2,295.9c-7.8,12.4-16.6,20.9-19.5,19.1s1-13.4,8.8-25.8,16.6-20.9,19.5-19.1c2.9,1.9-1,13.4-8.8,25.8Z"/>
    </g>
    <g>
      <path class="st0" d="M663.1,328.2c9-90.2,78-130.2,138.1-101.4,29.6,14.2,51.7,40.3,61.7,71.5,19.5,60.7-16.7,110.7-92.4,132.7l-107.3-102.8Z"/>
      <g>
        <path class="st6" d="M740.5,403.5l-48.6-48.3c18.4-34.8,38.9-55.2,62.3-54.1,15.3.7,28.6,10.5,34.5,24.6,14.8,35.4-11.3,58.2-48.2,77.8Z"/>
        <path class="st3" d="M706.5,367.9c18.2-40.9,44.7-59.7,81.6-43.5-7.4-15.3-22.5-26.2-44-22.5-23,4.3-45,36.6-51.9,51.2-2,4.2,12.9,17.6,14.2,14.8Z"/>
      </g>
      <path class="st1" d="M798,251.2c-2.4,2.8-.6,8.2,3.9,12,4.5,3.8,10.1,4.6,12.4,1.8,2.4-2.8.6-8.2-3.9-12-4.5-3.8-10.1-4.6-12.4-1.8Z"/>
      <path class="st1" d="M829.1,295.9c7.8,12.4,16.6,20.9,19.5,19.1s-1-13.4-8.8-25.8c-7.8-12.4-16.6-20.9-19.5-19.1-2.9,1.9,1,13.4,8.8,25.8Z"/>
    </g>
    <path class="st7" d="M826.3,556.1c-29.2-164.1-168.6-302.4-325.7-302.4s-296.4,138.2-325.7,302.4c-6.2,34.7-4.2,70.5,6.5,104.1,26.4,82.6,97.6,132.3,205.5,154.9,72.2,15.1,146.8,15.6,219.2,1.6,112.4-21.7,186.5-71.8,213.6-156.5,10.7-33.6,12.7-69.4,6.5-104.1Z"/>
    <g>
      <ellipse class="st5" cx="367" cy="495.9" rx="26.9" ry="37"/>
      <circle class="st4" cx="361.7" cy="481.2" r="8.9" transform="translate(-234.3 396.7) rotate(-45)"/>
    </g>
    <g>
      <ellipse class="st5" cx="631.3" cy="495.9" rx="26.9" ry="37"/>
      <path class="st4" d="M634.9,481.2c0,4.9-4,8.9-8.9,8.9s-8.9-4-8.9-8.9,4-8.9,8.9-8.9,8.9,4,8.9,8.9Z"/>
    </g>
    <path class="st8" d="M432,295c3.3,6.6-2.6,16.3-13.2,21.7-10.6,5.4-21.9,4.4-25.3-2.1-3.3-6.6,2.6-16.3,13.2-21.7,10.6-5.4,21.9-4.4,25.3,2.1Z"/>
    <path class="st8" d="M384.8,322.4c4.1,6.1-12,24.1-36,40.2-24,16.1-46.8,24.2-50.9,18-4.1-6.1,12-24.1,36-40.2,24-16.1,46.8-24.2,50.9-18Z"/>
    <path class="st9" d="M819.2,620.4c-27.1,84.7-101.1,134.8-213.6,156.5-72.4,14-147,13.5-219.2-1.6-107.9-22.5-179.1-72.3-205.5-154.9-4.7-14.7-7.7-29.8-9.1-45-2.6,28.6.3,57.4,9.1,84.8,26.4,82.6,97.6,132.3,205.5,154.9,72.2,15.1,146.8,15.6,219.2,1.6,112.4-21.7,186.5-71.8,213.6-156.5,8.8-27.4,11.7-56.3,9.1-84.8-1.4,15.2-4.4,30.3-9.1,45Z"/>
    <ellipse class="st8" cx="500.6" cy="665.2" rx="214.8" ry="145.5"/>
    <g>
      <path class="st2" d="M500.6,710.7c-1.1,0-1.9-.9-1.9-1.9v-109.2c0-1.1.9-1.9,1.9-1.9s1.9.9,1.9,1.9v109.2c0,1.1-.9,1.9-1.9,1.9Z"/>
      <path class="st2" d="M462.1,741c-.4,0-.8,0-1.3,0-19.3-.6-39.3-15.5-40.2-42.8,0-1.1.8-2,1.9-2,1.1,0,2,.8,2,1.9.9,24.9,19,38.5,36.5,39,15.6.5,34.8-9.5,37.8-39.2.1-1.1,1.1-1.8,2.1-1.7,1.1.1,1.8,1.1,1.7,2.1-1.4,13.8-6.5,25.1-14.7,32.7-7,6.5-16.1,10-25.8,10Z"/>
      <path class="st2" d="M539.2,741c-9.6,0-18.8-3.5-25.8-10-8.2-7.6-13.3-18.9-14.7-32.7-.1-1.1.7-2,1.7-2.1,1.1-.1,2,.7,2.1,1.7,2.9,29.7,22.2,39.7,37.8,39.2,17.5-.6,35.6-14.1,36.5-39,0-1.1.9-1.9,2-1.9,1.1,0,1.9.9,1.9,2-1,27.3-20.9,42.2-40.2,42.8-.4,0-.8,0-1.3,0Z"/>
      <path class="st0" d="M575.4,524.9c-11-18.1-40.5-21.9-74.3-21.9s-63.3,3.8-74.3,21.9c-3,5-3.4,11.3-.9,16.6,7.3,15.7,20.2,27.3,38.8,45.1,5.5,5.3,11.8,9.6,18.8,12.6,6,2.6,11.9,4,17.5,3.9,5.7,0,11.5-1.3,17.5-3.9,7-3,13.3-7.4,18.8-12.6,18.6-17.8,31.5-29.4,38.8-45.1,2.5-5.3,2.2-11.6-.9-16.6Z"/>
      <path class="st1" d="M507.6,527c2.1,8.1-10.1,18.3-27.2,22.8-17.1,4.4-32.7,1.5-34.8-6.7-2.1-8.1,10.1-18.3,27.2-22.8,17.1-4.4,32.7-1.5,34.8,6.7Z"/>
    </g>
  </g>
</svg>