<?xml version="1.0" encoding="UTF-8"?>
<svg id="Layer_1" xmlns="http://www.w3.org/2000/svg" version="1.1" viewBox="0 0 1000 1000">
  <!-- Generator: Adobe Illustrator 30.0.0, SVG Export Plug-In . SVG Version: 2.1.1 Build 123)  -->
  <defs>
    <style>
      .st0 {
        fill: #847ba8;
      }

      .st1 {
        fill: #b1a6c9;
      }

      .st2 {
        fill: #a399c1;
      }

      .st3 {
        fill: #fff;
      }

      .st4 {
        fill: #dcd4e8;
      }

      .st5 {
        fill: #d2cae0;
      }

      .st6 {
        fill: #c9bbdd;
      }

      .st7 {
        fill: #51d6c9;
      }
    </style>
  </defs>
  <circle class="st7" cx="499.5" cy="500.1" r="483.4"/>
  <g>
    <g>
      <g>
        <path class="st6" d="M228.5,574.4l142.8-254.6c-25.3-38.6-64.1-60.4-106-65.8-55.2-7.1-109.9,15.5-145.2,58.6-58.8,71.7-60.6,169.4-15.1,221.8,1.1,1.3,2.9,1.6,4.4.7,2.4-1.4,4.3-3.9,5.6-7.5.4-1.1,2-1,2.3.1,7.6,29.3,25.6,48,50.9,52.2,1.4.2,2.7-.4,3.5-1.6,2.2-3.4,3.1-7.5,2.8-12.1,0-1,1.1-1.6,1.9-1.1,13.8,9.1,30.5,12.2,49.4,11,1.2,0,2.2-.7,2.8-1.8Z"/>
        <path class="st1" d="M365.3,311.4l-137.3,244.9c-.6,1-1.6,1.7-2.8,1.8-18.9,1.2-35.7-1.9-49.4-11-.8-.5-2,0-1.9,1.1.3,4.6-.6,8.6-2.8,12.1-.7,1.2-2.1,1.8-3.5,1.6-25.2-4.2-43.3-22.9-50.9-52.2-.3-1.1-1.9-1.2-2.3-.1-1.3,3.6-3.2,6-5.6,7.5-1.4.9-3.3.6-4.4-.7-18.4-21.1-29-49.6-31.4-80.8-1,38.1,9.9,73.7,31.8,98.9,1.1,1.3,2.9,1.6,4.4.7,2.4-1.4,4.3-3.9,5.6-7.5.4-1.1,2-1,2.3.1,7.6,29.3,25.6,48,50.9,52.2,1.4.2,2.7-.4,3.5-1.6,2.2-3.4,3.1-7.5,2.8-12.1,0-1,1.1-1.6,1.9-1.1,13.8,9.1,30.5,12.2,49.4,11,1.2,0,2.2-.7,2.8-1.8l142.8-254.6c-1.9-2.9-3.8-5.7-5.9-8.3Z"/>
        <path class="st4" d="M119.9,326.4c35.3-43.1,90-65.7,145.2-58.6,39.7,5.1,76.5,24.9,101.7,59.6l4.3-7.7c-25.3-38.6-64.1-60.4-106-65.8-55.2-7.1-109.9,15.5-145.2,58.6-33.5,40.9-48.5,90.1-46.8,134.7,1.6-40.7,16.7-84.2,46.8-120.8Z"/>
        <circle class="st4" cx="255.4" cy="439.8" r="106.7" transform="translate(-236.2 309.5) rotate(-45)"/>
        <path class="st5" d="M244.4,546l95.5-171.6c-56.2-45.4-106.5-49.9-151.8-18.1,24,.1,46.8,1.6,64.9,8.2,22.3,8.2,33.3,33.2,24.4,55.2l-50,123.1,17,3.2Z"/>
        <path class="st0" d="M335.8,383c-8.5-10.2-18.6-19.3-30.1-26.4-11.4-7.1-24.2-12.3-37.6-15.1-13.4-2.8-27.4-3.1-41.2-.7-13.7,2.4-27.1,7.5-38.9,15.4,10.9-9.1,24-15.7,38-19.5,13.9-3.9,28.7-5,43.4-3.5,14.6,1.5,29.1,5.7,42.4,12.3,13.4,6.6,25.7,15.5,36.4,26.1l-12.4,11.4Z"/>
      </g>
      <g>
        <path class="st6" d="M763.5,574.4l-142.8-254.6c25.3-38.6,64.1-60.4,106-65.8,55.2-7.1,109.9,15.5,145.2,58.6,58.8,71.7,60.6,169.4,15.1,221.8-1.1,1.3-2.9,1.6-4.4.7-2.4-1.4-4.3-3.9-5.6-7.5-.4-1.1-2-1-2.3.1-7.6,29.3-25.6,48-50.9,52.2-1.4.2-2.7-.4-3.5-1.6-2.2-3.4-3.1-7.5-2.8-12.1,0-1-1.1-1.6-1.9-1.1-13.8,9.1-30.5,12.2-49.4,11-1.2,0-2.2-.7-2.8-1.8Z"/>
        <path class="st1" d="M626.7,311.4l137.3,244.9c.6,1,1.6,1.7,2.8,1.8,18.9,1.2,35.7-1.9,49.4-11,.8-.5,2,0,1.9,1.1-.3,4.6.6,8.6,2.8,12.1.7,1.2,2.1,1.8,3.5,1.6,25.2-4.2,43.3-22.9,50.9-52.2.3-1.1,1.9-1.2,2.3-.1,1.3,3.6,3.2,6,5.6,7.5,1.4.9,3.3.6,4.4-.7,18.4-21.1,29-49.6,31.4-80.8,1,38.1-9.9,73.7-31.8,98.9-1.1,1.3-2.9,1.6-4.4.7-2.4-1.4-4.3-3.9-5.6-7.5-.4-1.1-2-1-2.3.1-7.6,29.3-25.6,48-50.9,52.2-1.4.2-2.7-.4-3.5-1.6-2.2-3.4-3.1-7.5-2.8-12.1,0-1-1.1-1.6-1.9-1.1-13.8,9.1-30.5,12.2-49.4,11-1.2,0-2.2-.7-2.8-1.8l-142.8-254.6c1.9-2.9,3.8-5.7,5.9-8.3Z"/>
        <path class="st4" d="M872.1,326.4c-35.3-43.1-90-65.7-145.2-58.6-39.7,5.1-76.5,24.9-101.7,59.6l-4.3-7.7c25.3-38.6,64.1-60.4,106-65.8,55.2-7.1,109.9,15.5,145.2,58.6,33.5,40.9,48.5,90.1,46.8,134.7-1.6-40.7-16.7-84.2-46.8-120.8Z"/>
        <circle class="st4" cx="736.6" cy="439.8" r="106.7" transform="translate(-95.3 649.6) rotate(-45)"/>
        <path class="st5" d="M747.6,546l-95.5-171.6c56.2-45.4,106.5-49.9,151.8-18.1-24,.1-46.8,1.6-64.9,8.2-22.3,8.2-33.3,33.2-24.4,55.2l50,123.1-17,3.2Z"/>
        <path class="st0" d="M656.1,383c8.5-10.2,18.6-19.3,30.1-26.4,11.4-7.1,24.2-12.3,37.6-15.1,13.4-2.8,27.4-3.1,41.2-.7,13.7,2.4,27.1,7.5,38.9,15.4-10.9-9.1-24-15.7-38-19.5-13.9-3.9-28.7-5-43.4-3.5-14.6,1.5-29.1,5.7-42.4,12.3-13.4,6.6-25.7,15.5-36.4,26.1l12.4,11.4Z"/>
      </g>
      <path class="st6" d="M777,597.2c-7.7-191-132.1-319-280.1-321.8-148.1,2.8-272.5,130.7-280.1,321.8-23.2,23.8-38.8,49.2-36.7,78.2.2,2.8,2.5,4.8,5,4.5,5.9-.9,11-3,15.2-6.6,1.8-1.5,4.4.4,3.8,2.8-9.3,37.8-9,74.2,8.6,90,1.3,1.1,3,1.4,4.5.8,6.7-3,10.3-11.3,10.4-25.5,0-1.9,1.8-3.2,3.3-2.5,177.3,111.6,354.6,111.6,532,0,1.6-.8,3.3.5,3.3,2.5.1,14.2,3.7,22.5,10.4,25.5,1.5.7,3.2.4,4.5-.8,17.7-15.9,18-52.3,8.6-90-.6-2.5,1.9-4.4,3.8-2.8,4.2,3.6,9.3,5.7,15.2,6.6,2.5.4,4.8-1.6,5-4.5,2.1-29-13.5-54.4-36.7-78.2Z"/>
      <path class="st6" d="M542.4,284.2c-27.9-14.5-41.8-37.2-39.8-69.2.3-4.7-5.4-7.3-8.8-4-8.2,8-9.7,23.8-4.7,47-14.7-11.9-30.7-19.8-42.5-15.7-5.6,1.9-6.6,9.3-2,12.8,10,7.6,28.7,17.2,26.9,21.8-7.2-4.5-31.9-8.5-42.4-2.7-3.1,1.7-3,6.2.1,7.8l26.9,13.9,86.1-11.7Z"/>
      <ellipse class="st0" cx="371.2" cy="518.9" rx="28.5" ry="39.3"/>
      <circle class="st3" cx="365.6" cy="503.4" r="9.4" transform="translate(-176.1 809.3) rotate(-83.5)"/>
      <ellipse class="st0" cx="620.8" cy="518.9" rx="28.5" ry="39.3"/>
      <circle class="st3" cx="615.1" cy="503.4" r="9.4" transform="translate(-175.8 582.4) rotate(-45)"/>
      <ellipse class="st4" cx="496.8" cy="726.3" rx="134.8" ry="96.4"/>
      <g>
        <path class="st1" d="M781,738.5c-1.3,1.1-3,1.4-4.5.8-6.7-3-10.3-11.3-10.4-25.5,0-1.9-1.8-3.2-3.3-2.5-177.3,111.6-354.6,111.6-532,0-1.6-.8-3.3.5-3.3,2.5-.1,14.2-3.7,22.5-10.4,25.5-1.5.7-3.2.4-4.5-.8-7.9-7.1-12.3-18.3-14-32-2.5,25.8,1.2,48.1,14,59.7,1.3,1.1,3,1.4,4.5.8,6.7-3,10.3-11.3,10.4-25.5,0-1.9,1.8-3.2,3.3-2.5,177.3,111.6,354.6,111.6,532,0,1.6-.8,3.3.5,3.3,2.5.1,14.2,3.7,22.5,10.4,25.5,1.5.7,3.2.4,4.5-.8,12.8-11.5,16.5-33.8,14-59.7-1.6,13.6-6.1,24.9-14,32Z"/>
        <path class="st1" d="M204,648.4c.6-2.5-1.9-4.4-3.8-2.8-4.2,3.6-9.3,5.7-15.2,6.6-1,.2-2,0-2.8-.6-2,7.7-2.8,15.6-2.2,23.8.2,2.8,2.5,4.8,5,4.5,5.4-.8,10.2-2.7,14.2-5.7,1-8.3,2.7-17,4.8-25.7Z"/>
        <path class="st1" d="M808.6,652.2c-5.9-.9-11-3-15.2-6.6-1.8-1.5-4.4.4-3.8,2.8,2.2,8.7,3.8,17.3,4.8,25.7,4,3.1,8.8,4.9,14.2,5.7,2.5.4,4.8-1.6,5-4.5.6-8.2-.2-16.1-2.2-23.8-.8.5-1.8.7-2.8.6Z"/>
      </g>
      <path class="st0" d="M504.1,559c-4.7-1.7-9.8-1.7-14.5,0-23.8,8.4-39.8,34.7-38.2,65.2.6,11.3,5.1,22.1,13.1,30.1,8.6,8.7,19.5,12.6,32.4,12.3,12.9.3,23.7-3.6,32.4-12.3,8-8,12.5-18.8,13.1-30.1,1.6-30.5-14.4-56.8-38.2-65.2Z"/>
      <g>
        <path class="st0" d="M496.1,697.3c-1.9,0-3.5-1.6-3.5-3.5v-66.4c0-1.9,1.6-3.5,3.5-3.5s3.5,1.6,3.5,3.5v66.4c0,1.9-1.6,3.5-3.5,3.5Z"/>
        <path class="st0" d="M469.6,714.6c-1.4,0-2.8-.1-4.1-.3-14.3-2.1-29.1-15.3-28.4-35.5,0-1.9,1.7-3.5,3.6-3.4,1.9,0,3.5,1.7,3.4,3.6-.6,16.1,11.1,26.6,22.3,28.2,9.5,1.4,21.3-3.3,25.9-20.7.5-1.9,2.4-3,4.3-2.5,1.9.5,3,2.4,2.5,4.3-5.2,19.5-18.4,26.2-29.7,26.2Z"/>
        <path class="st0" d="M522.4,714.6c-11.3,0-24.5-6.7-29.7-26.2-.5-1.9.6-3.8,2.5-4.3,1.9-.5,3.8.6,4.3,2.5,4.6,17.4,16.4,22.1,25.9,20.7,11.2-1.7,22.9-12.1,22.3-28.2,0-1.9,1.5-3.6,3.4-3.6,2,0,3.6,1.5,3.6,3.4.7,20.2-14.1,33.4-28.4,35.5-1.3.2-2.7.3-4.1.3Z"/>
      </g>
      <path class="st2" d="M492.3,575.9c5.3,3.1,4.4,14.6-2.1,25.8-6.5,11.2-16,17.8-21.3,14.7-5.3-3.1-4.4-14.6,2.1-25.8,6.5-11.2,16-17.8,21.3-14.7Z"/>
    </g>
    <path class="st4" d="M375.5,449.9c-4.1-23-15.5-35.8-35.2-36.8-6-.3-12,1.9-16,6.5-3.4,3.9-5,9.1-4.9,15.2,0,5.4,2.3,10.7,6.4,14.3,9.3,8.3,24.8,10.1,46.6,5.4,2.1-.5,3.5-2.5,3.1-4.7Z"/>
    <path class="st4" d="M599.3,449.9c4.1-23,15.5-35.8,35.2-36.8,6-.3,12,1.9,16,6.5,3.4,3.9,5,9.1,4.9,15.2,0,5.4-2.3,10.7-6.4,14.3-9.3,8.3-24.8,10.1-46.6,5.4-2.1-.5-3.5-2.5-3.1-4.7Z"/>
  </g>
</svg>