<?xml version="1.0" encoding="UTF-8"?>
<svg id="Layer_1" xmlns="http://www.w3.org/2000/svg" version="1.1" viewBox="0 0 1000 1000">
  <!-- Generator: Adobe Illustrator 30.0.0, SVG Export Plug-In . SVG Version: 2.1.1 Build 123)  -->
  <defs>
    <style>
      .st0 {
        fill: #603913;
      }

      .st1 {
        fill: #88503f;
      }

      .st2 {
        fill: #fff;
      }

      .st3 {
        fill: #d49e64;
      }

      .st4 {
        fill: #603912;
      }

      .st5 {
        fill: #b68453;
      }

      .st6 {
        fill: #64ced2;
      }

      .st7 {
        fill: #c48a52;
        opacity: .4;
      }

      .st8 {
        fill: #9c693d;
      }

      .st9 {
        fill: #e4b98e;
      }

      .st10 {
        fill: #753c2f;
      }
    </style>
  </defs>
  <circle class="st6" cx="499.5" cy="500.1" r="483.4"/>
  <g>
    <path class="st7" d="M364.8,729.9l36-35,217.7-1.3,11.2,18.9,19.6,19.1c-78.2,34.5-214.5,33.7-284.5-1.7Z"/>
    <g>
      <g>
        <path class="st1" d="M458.6,204.3c-18.3-27-46.1-37.5-79.3-38.5,13.6,7.2,24.2,15.4,26.9,26.2-42.4-5.1-82.2,6.8-120.7,26.2,12.2,4.2,27.9,15.5,37.1,25.8-22.5,6.3-51.1,16.3-76.4,36.7,17.1-1,32.5.7,42.9,9.5-69.8,32.7-129.1,96-159.6,175.6,18.5-7.6,41.8-7.6,41.8-7.6-9.7,72.8-1.7,130.7,30.5,168,6.5-20.5,15.3-37.8,26.9-50.9-10.2,94.2,30.9,135.3,62.2,181.5l6.2-25.1,34.9,93.1,10.9-49.5c55,50.4,113.1,109.3,162.8,168.9l41.5-101.9,18.9,25.5c29.5-49.1,120.4-68,125.1-166.6,9.8,6,16.4,23.1,21.8,44.4,75.8-21.4,96.1-87.1,91-173l18.5,33.8c42.6-76.7,32.3-156.6-31.6-240,10.3-1.2,20.8,1.2,31.6,6.5,5.9-42.7-66.2-82.1-136.4-103.6,5.9-5.8,14.2-8,24-7.6-12-27.2-35.6-40.4-65.5-45.8,7.1-6.5,15.8-9.8,26.2-9.8-17.2-16.7-41.2-22.9-72-18.5,1.2-10.9,6.4-20.3,15.3-28.4-56.2-1.9-107.9,13.9-155.7,45.3Z"/>
        <g>
          <path class="st10" d="M405.9,190.8c7.1,0,14.2.3,21.4,1.2-2.3-9.1-10.3-16.4-20.9-22.8-8.5-2-17.6-3.1-27.1-3.4,13.1,7,23.4,14.8,26.6,25Z"/>
          <path class="st10" d="M310.2,290.1c-10.5-8.8-25.8-10.4-42.9-9.5,25.2-20.5,53.8-30.4,76.4-36.7-9.1-10.3-24.9-21.6-37.1-25.8,29.2-14.7,59.1-25.1,90.3-27-38.9-2.5-75.7,9.1-111.4,27,12.2,4.2,27.9,15.5,37.1,25.8-22.5,6.3-51.1,16.3-76.4,36.7,17.1-1,32.5.7,42.9,9.5-69.8,32.7-129.1,96-159.6,175.6,7.7-3.2,16.2-5,23.5-6.1,31.2-76.8,89.2-137.7,157.2-169.5Z"/>
          <path class="st10" d="M192.4,458.1s-9.6,0-21.4,2c-9.2,71.8-1.2,129,30.8,166,2.2-6.9,4.7-13.5,7.4-19.6-20.7-36.8-24.9-87.4-16.8-148.4Z"/>
          <path class="st10" d="M364.1,775.2l-3.6,16.3c49.6,46.6,100.8,99.4,145.3,152.6l6.8-16.8c-46.4-53.8-98.8-106.4-148.6-152.1Z"/>
          <path class="st10" d="M249.9,575.2c-9.1,10.4-16.5,23.3-22.4,38.3,3.1,68.1,36.9,103.8,63.5,143.2l5.5-22.2c-27.6-38.6-55.1-80.3-46.6-159.3Z"/>
          <path class="st10" d="M318.2,731.6l-6.2,25.1c-3.8-5.7-7.8-11.2-11.8-16.9l31.8,84.9,7.8-35.4-21.6-57.7Z"/>
        </g>
      </g>
      <g>
        <path class="st10" d="M648.2,205.9c-10.4,0-19.1,3.3-26.2,9.8,29.9,5.5,53.4,18.7,65.5,45.8-9.8-.4-18.1,1.8-24,7.6,66.5,20.4,134.7,56.9,136.6,97,7.4.6,14.9,2.9,22.6,6.7,5.9-42.7-66.2-82.1-136.4-103.6,5.9-5.8,14.2-8,24-7.6-12-27.2-35.6-40.4-65.5-45.8,7.1-6.5,15.8-9.8,26.2-9.8-16-15.5-37.8-22-65.5-19.3,17.2,1.9,31.4,8.4,42.7,19.3Z"/>
        <path class="st10" d="M576.2,187.3c8.2-1.2,15.8-1.6,23-1.2,1.5-10.4,6.6-19.4,15.1-27.1-7.8-.3-15.5-.2-23.1.2-8.7,8-13.8,17.3-15,28.1Z"/>
        <path class="st10" d="M799.9,606.2l-18.5-33.8c4.6,77.5-11.5,138.4-70.2,165.4.7,2.5,1.4,5,2,7.6,68.5-19.4,91.7-74.9,91.7-148.8-1.6,3.2-3.3,6.4-5,9.6Z"/>
        <path class="st10" d="M794.1,370.2c-8.8-3.5-17.4-4.9-25.9-4,57.8,75.4,71.8,148,42.4,218l12.1,22.1c42-75.5,32.6-154.1-28.6-236Z"/>
        <path class="st10" d="M524.5,842.2l-34.1,83.8c5.2,6,10.4,12.1,15.5,18.2l33.4-82.1-14.8-19.9Z"/>
        <path class="st10" d="M668.5,701.1c-4.2,87.8-76.9,112.4-113.5,151.4l11.2,15.1c26.1-43.5,100.3-63.3,120.3-135.6-4.7-14.9-10.4-26.3-18-30.9Z"/>
      </g>
    </g>
    <g>
      <path class="st3" d="M646.5,405.9l-50.2-74.9c13.1-20,31.9-32.3,50.6-35.7,29.3-5.3,56.5,15.8,59.7,45.3,3.9,36.5-18.8,56.6-60.1,65.3Z"/>
      <path class="st8" d="M638,373.3l-13.2-20c-3.1-4.6-3.3-10.6-.5-15.4,9.7-16.6,22.5-21.9,39.3-13.2,6,3.1,10.4,8.6,12.2,15.2,4.7,17.3-2.2,29.9-19,38.4-6.6,3.4-14.7,1.2-18.8-5Z"/>
      <path class="st4" d="M641,376.3l-13.2-20c-3.1-4.6-3.3-10.6-.5-15.4,9.7-16.6,22.5-21.9,39.3-13.2,1.6.8,3,1.8,4.4,2.9-2-2.4-4.5-4.5-7.4-5.9-16.7-8.7-29.6-3.4-39.3,13.2-2.8,4.8-2.6,10.8.5,15.4l13.2,20c1,1.5,2.2,2.7,3.5,3.7-.2-.2-.3-.4-.5-.6Z"/>
    </g>
    <g>
      <path class="st3" d="M353.7,405.9l50.2-74.9c-13.1-20-31.9-32.3-50.6-35.7-29.3-5.3-56.5,15.8-59.7,45.3-3.9,36.5,18.8,56.6,60.1,65.3Z"/>
      <path class="st8" d="M362.3,373.3l13.2-20c3.1-4.6,3.3-10.6.5-15.4-9.7-16.6-22.5-21.9-39.3-13.2-6,3.1-10.4,8.6-12.2,15.2-4.7,17.3,2.2,29.9,19,38.4,6.6,3.4,14.7,1.2,18.8-5Z"/>
      <path class="st4" d="M359.2,376.3l13.2-20c3.1-4.6,3.3-10.6.5-15.4-9.7-16.6-22.5-21.9-39.3-13.2-1.6.8-3,1.8-4.4,2.9,2-2.4,4.5-4.5,7.4-5.9,16.7-8.7,29.6-3.4,39.3,13.2,2.8,4.8,2.6,10.8-.5,15.4l-13.2,20c-1,1.5-2.2,2.7-3.5,3.7.2-.2.3-.4.5-.6Z"/>
    </g>
    <path class="st3" d="M687,473.4l-10.9-8.9c-9-7.3-15.2-17.3-17.9-28.6-22.9-97.3-59.7-166.3-157.6-166.1-98-.2-134.7,68.8-157.6,166.1-2.6,11.2-8.9,21.3-17.9,28.6l-10.9,8.9c-76.4,35.6-61.1,118.6,31.5,171.7,55.1,29.7,83.7,87.5,155,87.3,71.3.2,99.9-57.5,155-87.3,92.6-53.2,107.9-136.1,31.5-171.7Z"/>
    <path class="st9" d="M609.4,552.4c-9.4-46.3-54-66-107.5-56-53.5-10.1-98.1,9.7-107.5,56-2.7,13.1-1.9,26.7,1.7,39.7l28.2,100.4c2.4,8.6,7.8,16.2,15.1,21.4,17.7,12.5,38.6,21,62.5,19.9,23.9,1.1,44.8-7.4,62.5-19.9,7.3-5.2,12.7-12.7,15.1-21.4l28.2-100.4c3.6-12.9,4.3-26.5,1.7-39.7Z"/>
    <g>
      <g>
        <path class="st0" d="M499.3,644.4c-.7,0-1.3-.6-1.3-1.3v-75.5c0-.7.6-1.3,1.3-1.3s1.3.6,1.3,1.3v75.5c0,.7-.6,1.3-1.3,1.3Z"/>
        <path class="st0" d="M472.7,665.3c-.3,0-.6,0-.9,0-13.3-.4-27.1-10.7-27.8-29.6,0-.7.6-1.4,1.3-1.4.7,0,1.4.6,1.4,1.3.6,17.2,13.1,26.6,25.2,27,10.8.3,24.1-6.5,26.1-27.1,0-.7.7-1.3,1.5-1.2.7,0,1.3.7,1.2,1.5-.9,9.6-4.5,17.4-10.2,22.6-4.9,4.5-11.2,6.9-17.8,6.9Z"/>
        <path class="st0" d="M526,665.3c-6.7,0-13-2.4-17.8-6.9-5.7-5.2-9.2-13.1-10.2-22.6,0-.7.5-1.4,1.2-1.5.7,0,1.4.5,1.5,1.2,2,20.5,15.3,27.4,26.1,27.1,12.1-.4,24.6-9.8,25.2-27,0-.7.6-1.3,1.4-1.3.7,0,1.3.6,1.3,1.4-.7,18.9-14.5,29.1-27.8,29.6-.3,0-.6,0-.9,0Z"/>
      </g>
      <path class="st8" d="M564.9,503.5c-9.6-15.9-35.5-19.2-65.1-19.2s-55.5,3.4-65.1,19.2c-2.7,4.4-2.9,9.9-.8,14.5,6.4,13.7,17.7,23.9,34,39.5,4.8,4.6,10.4,8.4,16.5,11.1,5.3,2.3,10.4,3.5,15.4,3.4,5,0,10.1-1.2,15.4-3.4,6.1-2.6,11.7-6.5,16.5-11.1,16.3-15.6,27.6-25.8,34-39.5,2.2-4.7,1.9-10.1-.8-14.5Z"/>
      <path class="st5" d="M505.4,505.3c1.8,7.1-8.8,16.1-23.8,19.9-15,3.9-28.7,1.3-30.5-5.8-1.8-7.1,8.8-16.1,23.8-19.9,15-3.9,28.7-1.3,30.5,5.8Z"/>
    </g>
    <g>
      <ellipse class="st4" cx="411.8" cy="431.7" rx="17.8" ry="24.5"/>
      <circle class="st2" cx="408.3" cy="422" r="5.9"/>
    </g>
    <g>
      <ellipse class="st4" cx="593.2" cy="431.7" rx="17.8" ry="24.5"/>
      <path class="st2" d="M595.6,422c0,3.2-2.6,5.9-5.9,5.9s-5.9-2.6-5.9-5.9,2.6-5.9,5.9-5.9,5.9,2.6,5.9,5.9Z"/>
    </g>
    <path class="st1" d="M509,284.5c-20.6,14-30.1,89-62.3,114,1.2-23.3-.1-45.3-3.8-65.8-.4-2.2-3.1-3-4.6-1.4-13.3,13.7-21.9,36.6-28.7,63-8.1-10.1-2-45.9,2.1-65.4.7-3.1-3.6-4.7-5.1-1.9-3.8,7-7,16.4-9.8,27.5-4.7-20.7-5.2-40.5,0-59l41.5-72.8,151.5,7.4c14.9,51.8,29,100.5,16,138.2-15.6-36.1-43.1-61.8-75.2-83.6-6.5-4.4-15-4.5-21.5-.1Z"/>
  </g>
</svg>