<?xml version="1.0" encoding="UTF-8"?>
<svg id="Layer_1" xmlns="http://www.w3.org/2000/svg" version="1.1" viewBox="0 0 1000 1000">
  <!-- Generator: Adobe Illustrator 30.0.0, SVG Export Plug-In . SVG Version: 2.1.1 Build 123)  -->
  <defs>
    <style>
      .st0 {
        fill: #2f2e30;
      }

      .st1 {
        fill: #489dd3;
      }

      .st2 {
        fill: #fff;
      }

      .st3 {
        fill: #58595b;
      }

      .st4 {
        fill: #414042;
      }

      .st5 {
        fill: #6a6b6b;
      }

      .st6 {
        fill: #e6e7e8;
      }

      .st7 {
        fill: #707070;
      }
    </style>
  </defs>
  <circle class="st1" cx="499.5" cy="500.1" r="483.4"/>
  <g>
    <g>
      <path class="st3" d="M351.9,381c-10.3-102.7-88.9-148.4-157.3-115.5-33.7,16.2-58.8,45.9-70.2,81.4-22.2,69.2,19,126.1,105.2,151.2l122.3-117.1Z"/>
      <g>
        <path class="st4" d="M272.2,483.5l74.6-89.8c-36.9-56-74.9-87.3-114.5-81.6-25.8,3.7-46.7,22.5-54.5,47.3-19.4,62.4,28.7,96.9,94.4,124.1Z"/>
        <path class="st0" d="M324.1,417.7c-37.5-66.4-85.5-94.1-145.5-60.5,10-27.1,33.9-48.2,70.9-45.3,39.6,3.5,82.2,54.8,96.3,78.4,4,6.8-19.1,32-21.7,27.4Z"/>
      </g>
      <path class="st5" d="M198.3,293.3c2.7,3.2.7,9.3-4.4,13.6-5.1,4.3-11.5,5.2-14.2,2-2.7-3.2-.7-9.3,4.4-13.6,5.1-4.3,11.5-5.2,14.2-2Z"/>
      <path class="st5" d="M162.8,344.2c-8.9,14.1-18.9,23.8-22.2,21.7-3.4-2.1,1.2-15.3,10.1-29.4,8.9-14.1,18.9-23.8,22.2-21.7,3.4,2.1-1.2,15.3-10.1,29.4Z"/>
    </g>
    <g>
      <path class="st3" d="M672.2,381c10.3-102.7,88.9-148.4,157.3-115.5,33.7,16.2,58.8,45.9,70.2,81.4,22.2,69.2-19,126.1-105.2,151.2l-122.3-117.1Z"/>
      <g>
        <path class="st4" d="M751.8,483.5l-74.6-89.8c36.9-56,74.9-87.3,114.5-81.6,25.8,3.7,46.7,22.5,54.5,47.3,19.4,62.4-28.7,96.9-94.4,124.1Z"/>
        <path class="st0" d="M699.9,417.7c37.5-66.4,85.5-94.1,145.5-60.5-10-27.1-33.9-48.2-70.9-45.3-39.6,3.5-82.2,54.8-96.3,78.4-4,6.8,19.1,32,21.7,27.4Z"/>
      </g>
      <path class="st5" d="M825.8,293.3c-2.7,3.2-.7,9.3,4.4,13.6,5.1,4.3,11.5,5.2,14.2,2,2.7-3.2.7-9.3-4.4-13.6-5.1-4.3-11.5-5.2-14.2-2Z"/>
      <path class="st5" d="M861.3,344.2c8.9,14.1,18.9,23.8,22.2,21.7,3.4-2.1-1.2-15.3-10.1-29.4-8.9-14.1-18.9-23.8-22.2-21.7s1.2,15.3,10.1,29.4Z"/>
    </g>
    <path class="st2" d="M817.5,555.7c-29.3-188.1-128.7-289.4-309.4-290.4-180.6,1-280.1,102.3-309.4,290.4-68.3,164.8,54.6,262,309.4,262s377.6-97.1,309.4-262Z"/>
    <path class="st6" d="M508.1,763.2c-191.2,0-308.1-54.7-325.7-151.7-20.9,130.8,101.1,206.2,325.7,206.2s346.6-75.5,325.7-206.2c-17.6,97-134.5,151.7-325.7,151.7Z"/>
    <g>
      <path class="st3" d="M382.5,590.8c11.5-36.1,27.1-69.5,49.4-98.3,9.1-11.8,14.5-26.1,14.6-41,.4-35.1-26.7-59.4-70.6-55.1-11,1.1-21.7,4.6-31.3,10.2-57.7,33.6-86,87.3-87.2,159.7-.1,7.3.7,14.6,2.7,21.6,15.2,53.3,83.8,68.3,115.4,18.3,3-4.8,5.3-9.9,7.1-15.3Z"/>
      <g>
        <ellipse class="st4" cx="360.4" cy="498.1" rx="34.2" ry="47.2"/>
        <path class="st2" d="M364.9,479.5c0,6.2-5,11.3-11.3,11.3s-11.3-5-11.3-11.3,5-11.3,11.3-11.3,11.3,5,11.3,11.3Z"/>
      </g>
    </g>
    <g>
      <path class="st3" d="M632,590.8c-11.5-36.1-27.1-69.5-49.4-98.3-9.1-11.8-14.5-26.1-14.6-41-.4-35.1,26.7-59.4,70.6-55.1,11,1.1,21.7,4.6,31.3,10.2,57.7,33.6,86,87.3,87.2,159.7.1,7.3-.7,14.6-2.7,21.6-15.2,53.3-83.8,68.3-115.4,18.3-3-4.8-5.3-9.9-7.1-15.3Z"/>
      <g>
        <ellipse class="st4" cx="654.1" cy="498.1" rx="34.2" ry="47.2"/>
        <path class="st2" d="M649.6,479.5c0,6.2,5,11.3,11.3,11.3s11.3-5,11.3-11.3-5-11.3-11.3-11.3-11.3,5-11.3,11.3Z"/>
      </g>
    </g>
    <g>
      <g>
        <path class="st3" d="M508.2,631.7c-1.4,0-2.6-1.2-2.6-2.6v-82.2c0-1.4,1.2-2.6,2.6-2.6s2.6,1.2,2.6,2.6v82.2c0,1.4-1.2,2.6-2.6,2.6Z"/>
        <path class="st3" d="M488.8,644.3c-1,0-2,0-3-.2-10.4-1.5-21.2-11.1-20.7-25.9,0-1.4,1.2-2.5,2.7-2.5,1.4,0,2.5,1.2,2.5,2.7-.4,11.8,8.1,19.4,16.3,20.6,6.9,1,15.5-2.4,18.9-15.1.4-1.4,1.8-2.2,3.1-1.8,1.4.4,2.2,1.8,1.8,3.1-3.8,14.2-13.4,19.1-21.6,19.1Z"/>
        <path class="st3" d="M527.3,644.3c-8.2,0-17.9-4.9-21.6-19.1-.4-1.4.5-2.8,1.8-3.1,1.4-.4,2.8.5,3.1,1.8,3.4,12.7,12,16.1,18.9,15.1,8.2-1.2,16.7-8.8,16.3-20.6,0-1.4,1.1-2.6,2.5-2.7,1.4,0,2.6,1.1,2.7,2.5.5,14.7-10.3,24.3-20.7,25.9-1,.1-2,.2-3,.2Z"/>
      </g>
      <path class="st3" d="M551.7,552.2c-6.5-10.6-23.8-12.7-43.6-12.6-19.8.1-37.1,2.4-43.5,13.1-1.8,3-1.9,6.6-.5,9.7,4.3,9.2,11.9,15.9,22.9,26.3,3.2,3.1,7,5.6,11.1,7.3,3.5,1.5,7,2.3,10.3,2.2,3.3,0,6.8-.8,10.3-2.3,4.1-1.8,7.8-4.4,11-7.5,10.8-10.5,18.4-17.3,22.6-26.6,1.4-3.1,1.2-6.8-.6-9.7Z"/>
      <path class="st7" d="M512,553.6c1.2,4.8-5.9,10.7-16,13.3-10,2.6-19.2.9-20.4-3.9-1.2-4.8,5.9-10.7,16-13.3,10-2.6,19.2-.9,20.4,3.9Z"/>
    </g>
  </g>
</svg>