<?xml version="1.0" encoding="UTF-8"?>
<svg id="Layer_1" xmlns="http://www.w3.org/2000/svg" version="1.1" viewBox="0 0 1000 1000">
  <!-- Generator: Adobe Illustrator 30.0.0, SVG Export Plug-In . SVG Version: 2.1.1 Build 123)  -->
  <defs>
    <style>
      .st0 {
        fill: #7a4e30;
      }

      .st1 {
        fill: #da9e78;
      }

      .st2 {
        fill: #fff;
      }

      .st3 {
        fill: #c9a0d4;
      }

      .st4 {
        fill: #ffd2ab;
      }

      .st5 {
        fill: #fbd0a5;
      }

      .st6 {
        fill: #ffdfc7;
      }

      .st7 {
        fill: #6d411e;
      }

      .st8 {
        fill: #e9ae8d;
      }

      .st9 {
        fill: #e6af8a;
      }
    </style>
  </defs>
  <circle class="st3" cx="499.5" cy="500.1" r="483.4"/>
  <g>
    <g>
      <g>
        <path class="st4" d="M242.6,447.9c-28.8-34.7-57.5-54.8-85.9-60-36.3-6.6-71.8,13.7-85.7,47.9-16.6,40.8-10.6,96.1,25.6,130,38.4,38.7,88.2,40.2,146,15.7v-133.5Z"/>
        <path class="st6" d="M156.7,387.9c-36.3-6.6-71.8,13.7-85.7,47.9-6.3,15.6-9.4,33.3-8.7,51.2.6-14.4,3.5-28.5,8.7-41.2,13.9-34.1,49.5-54.5,85.7-47.9,28.4,5.2,57,25.4,85.9,60v-10c-28.8-34.7-57.5-54.8-85.9-60Z"/>
        <path class="st8" d="M96.6,550.6c-21.7-20.3-32.5-48.3-34.2-76.3-1.9,32.7,8.6,67.4,34.2,91.3,38.4,38.7,88.2,40.2,146,15.7v-15c-57.8,24.5-107.6,23.1-146-15.7Z"/>
        <path class="st9" d="M241.2,522.7l10.4-8.7c-21.9-38-43-60-62.5-67.5-16.1-6.2-34.2.6-42.6,15.6-19.9,35.3-3.9,94.8,59.6,97.9-29-43.2,3.1-73,35.1-37.3Z"/>
        <path class="st1" d="M164.5,465c5.7-10.1,15.8-16.5,26.6-17.7-.7-.3-1.4-.6-2.1-.9-16.1-6.2-34.2.6-42.6,15.6-19.7,35-4.2,93.9,58.3,97.8-47.2-13-57.9-63.5-40.2-94.9Z"/>
      </g>
      <g>
        <path class="st4" d="M748.4,447.9c28.8-34.7,57.5-54.8,85.9-60,36.3-6.6,71.8,13.7,85.7,47.9,16.6,40.8,10.6,96.1-25.6,130-38.4,38.7-88.2,40.2-146,15.7v-133.5Z"/>
        <path class="st6" d="M834.3,387.9c36.3-6.6,71.8,13.7,85.7,47.9,6.3,15.6,9.4,33.3,8.7,51.2-.6-14.4-3.5-28.5-8.7-41.2-13.9-34.1-49.5-54.5-85.7-47.9-28.4,5.2-57,25.4-85.9,60v-10c28.8-34.7,57.5-54.8,85.9-60Z"/>
        <path class="st8" d="M894.4,550.6c21.7-20.3,32.5-48.3,34.2-76.3,1.9,32.7-8.6,67.4-34.2,91.3-38.4,38.7-88.2,40.2-146,15.7v-15c57.8,24.5,107.6,23.1,146-15.7Z"/>
        <path class="st9" d="M749.8,522.7l-10.4-8.7c21.9-38,43-60,62.5-67.5,16.1-6.2,34.2.6,42.6,15.6,19.9,35.3,3.9,94.8-59.6,97.9,29-43.2-3.1-73-35.1-37.3Z"/>
        <path class="st1" d="M826.4,465c-5.7-10.1-15.8-16.5-26.6-17.7.7-.3,1.4-.6,2.1-.9,16.1-6.2,34.2.6,42.6,15.6,19.7,35,4.2,93.9-58.3,97.8,47.2-13,57.9-63.5,40.2-94.9Z"/>
      </g>
      <path class="st7" d="M763.5,564.4c55.7-209.6-78.9-340.9-264.7-340.9s-320.4,131.3-264.7,340.9c-82.2,68.7-10.2,215.6,152.4,219,28,30.3,66.6,43.7,112.3,45.7,45.7-2,84.2-15.5,112.3-45.7,162.6-3.4,234.7-150.2,152.4-219Z"/>
      <path class="st5" d="M708.5,559.5c74.4-170.6-74.2-312-201.4-199.7-3.8,3.4-9.5,3.4-13.3,0-127.1-112.3-275.8,29.1-201.4,199.7,2.2,5.1-.2,11.1-5.4,13.2-95.3,39.2-70.6,170.3,87,208.7,8.1,2,15.5,6,21.7,11.6,26.3,24.1,67.5,36.1,104.7,36.1s78.5-12,104.7-36.1c6.1-5.6,13.6-9.6,21.7-11.6,157.7-38.4,182.4-169.5,87-208.7-5.2-2.1-7.7-8.1-5.4-13.2Z"/>
      <path class="st8" d="M627,744.1c-8.1,2-15.5,6-21.7,11.6-26.3,24.1-67.5,36.1-104.7,36.1s-78.5-12-104.7-36.1c-6.1-5.6-13.6-9.6-21.7-11.6-84.5-20.5-130.8-67.7-140.9-113.1-12.9,54,32.6,124.1,140.9,150.4,8.1,2,15.5,6,21.7,11.6,26.3,24.1,67.5,36.1,104.7,36.1s78.5-12,104.7-36.1c6.1-5.6,13.6-9.6,21.7-11.6,108.3-26.3,153.8-96.4,140.9-150.4-10.1,45.4-56.4,92.6-140.9,113.1Z"/>
      <path class="st7" d="M573.2,233.8c-42.9-22.3-64.2-57.2-61.1-106.3.5-7.3-8.2-11.2-13.4-6.1-12.5,12.3-14.8,36.5-7.2,72.3-22.6-18.3-47.1-30.5-65.4-24.2-8.5,2.9-10.2,14.3-3,19.7,15.4,11.6,44.1,26.4,41.4,33.5-11.1-6.9-49.1-13.1-65.1-4.1-4.7,2.6-4.6,9.5.2,11.9l41.4,21.3,132.3-18Z"/>
    </g>
    <ellipse class="st7" cx="396.8" cy="519.3" rx="26.8" ry="36.9"/>
    <circle class="st2" cx="391.5" cy="504.7" r="8.8" transform="translate(-58.7 51.6) rotate(-7)"/>
    <ellipse class="st7" cx="598.8" cy="519.3" rx="26.8" ry="36.9"/>
    <path class="st2" d="M602.3,504.7c0,4.9-4,8.8-8.8,8.8s-8.8-4-8.8-8.8,4-8.8,8.8-8.8,8.8,4,8.8,8.8Z"/>
    <g>
      <g>
        <path class="st7" d="M501.9,695.2c-1.4,0-2.6-1.2-2.6-2.6v-48.6c0-1.4,1.2-2.6,2.6-2.6s2.6,1.2,2.6,2.6v48.6c0,1.4-1.2,2.6-2.6,2.6Z"/>
        <path class="st7" d="M482.4,707.9c-1,0-2,0-3-.2-10.5-1.5-21.3-11.2-20.8-26,0-1.4,1.2-2.6,2.7-2.5,1.4,0,2.5,1.2,2.5,2.7-.4,11.8,8.1,19.5,16.4,20.7,7,1,15.6-2.4,19-15.2.4-1.4,1.8-2.2,3.2-1.8,1.4.4,2.2,1.8,1.8,3.2-3.8,14.3-13.5,19.2-21.7,19.2Z"/>
        <path class="st7" d="M521.1,707.9c-8.3,0-18-4.9-21.7-19.2-.4-1.4.5-2.8,1.8-3.2,1.4-.4,2.8.5,3.2,1.8,3.4,12.8,12,16.2,19,15.2,8.2-1.2,16.8-8.9,16.4-20.7,0-1.4,1.1-2.6,2.5-2.7,1.4,0,2.6,1.1,2.7,2.5.5,14.8-10.3,24.4-20.8,26-1,.1-2,.2-3,.2Z"/>
      </g>
      <path class="st7" d="M545.6,606.5c-6.5-10.6-23.9-12.8-43.8-12.7-19.9.1-37.3,2.5-43.7,13.2-1.8,3-1.9,6.6-.5,9.8,4.3,9.2,12,16,23,26.4,3.3,3.1,7,5.6,11.1,7.4,3.5,1.5,7,2.3,10.3,2.2,3.4,0,6.8-.8,10.3-2.4,4.1-1.8,7.8-4.4,11.1-7.5,10.9-10.6,18.5-17.4,22.7-26.7,1.4-3.1,1.2-6.8-.6-9.8Z"/>
      <path class="st0" d="M505.7,607.9c1.2,4.8-5.9,10.8-16,13.4-10.1,2.6-19.3.9-20.5-3.9-1.2-4.8,5.9-10.8,16-13.4,10.1-2.6,19.3-.9,20.5,3.9Z"/>
    </g>
    <path class="st7" d="M441,438.6c0,.1,0,.3,0,.4-1.5,6.5-6.4,15.8-12.8,13.9-34.8-10.6-59.2-.2-82.6,10.3-5.4,2.4-7.4-7.8-2.7-11.3,25.1-18.3,51.9-31.3,85.5-27.6,7.9.9,14.4,6.5,12.7,14.3Z"/>
    <path class="st7" d="M549.9,438.6c0,.1,0,.3,0,.4,1.5,6.5,6.4,15.8,12.8,13.9,34.8-10.6,59.2-.2,82.6,10.3,5.4,2.4,7.4-7.8,2.7-11.3-25.1-18.3-51.9-31.3-85.5-27.6-7.9.9-14.4,6.5-12.7,14.3Z"/>
  </g>
</svg>