<?xml version="1.0" encoding="UTF-8"?>
<svg id="Layer_1" xmlns="http://www.w3.org/2000/svg" version="1.1" viewBox="0 0 1000 1000">
  <!-- Generator: Adobe Illustrator 30.0.0, SVG Export Plug-In . SVG Version: 2.1.1 Build 123)  -->
  <defs>
    <style>
      .st0 {
        fill: #fff;
      }

      .st1 {
        fill: #d8f091;
      }

      .st2, .st3 {
        fill: #6d6e71;
      }

      .st3 {
        opacity: 0;
      }

      .st4 {
        fill: #fbe4c4;
      }

      .st5 {
        fill: #939598;
      }

      .st6 {
        fill: #58595b;
      }

      .st7 {
        fill: #414042;
      }

      .st8 {
        fill: #a4a4a5;
      }

      .st9 {
        fill: #5e6063;
      }

      .st10 {
        fill: #707070;
      }
    </style>
  </defs>
  <circle class="st1" cx="499.5" cy="500.1" r="483.4"/>
  <g>
    <g>
      <g>
        <path class="st5" d="M211.1,531.3c-21.6-88.8-44.3-211.5-.9-294.9,7.4-14.2,22.7-22.4,38.6-20.5,118,13.9,225.3,140.9,225.3,140.9l-263,174.5Z"/>
        <path class="st2" d="M248.3,506.7c-16-65.6-32.7-156.4-.7-218.1,5.5-10.5,16.8-16.6,28.6-15.2,87.3,10.3,166.6,104.2,166.6,104.2l-194.5,129Z"/>
        <g>
          <path class="st8" d="M243.5,240c4,4.1,1.7,12.7-5,19.1-6.7,6.4-15.3,8.2-19.3,4.1-4-4.1-1.7-12.7,5-19.1,6.7-6.4,15.3-8.2,19.3-4.1Z"/>
          <path class="st8" d="M219,278c5.7.8,7.7,19.5,4.5,41.8-3.2,22.2-10.4,39.6-16.1,38.8-5.7-.8-7.7-19.5-4.5-41.8,3.2-22.2,10.4-39.6,16.1-38.8Z"/>
        </g>
        <path class="st9" d="M255.2,279.4c-4.3,77.9,9.5,143,38.9,196.9l-45.9,30.4c-23.8-103.3-27.5-185.4,6.9-227.3Z"/>
      </g>
      <g>
        <path class="st5" d="M793.9,531.3c21.6-88.8,44.3-211.5.9-294.9-7.4-14.2-22.7-22.4-38.6-20.5-118,13.9-225.3,140.9-225.3,140.9l263,174.5Z"/>
        <path class="st2" d="M756.7,506.7c16-65.6,32.7-156.4.7-218.1-5.5-10.5-16.8-16.6-28.6-15.2-87.3,10.3-166.6,104.2-166.6,104.2l194.5,129Z"/>
        <g>
          <path class="st8" d="M761.6,240c-4,4.1-1.7,12.7,5,19.1,6.7,6.4,15.3,8.2,19.3,4.1,4-4.1,1.7-12.7-5-19.1-6.7-6.4-15.3-8.2-19.3-4.1Z"/>
          <path class="st8" d="M786.1,278c-5.7.8-7.7,19.5-4.5,41.8,3.2,22.2,10.4,39.6,16.1,38.8,5.7-.8,7.7-19.5,4.5-41.8-3.2-22.2-10.4-39.6-16.1-38.8Z"/>
        </g>
        <path class="st9" d="M749.8,279.4c4.3,77.9-9.5,143-38.9,196.9l45.9,30.4c23.8-103.3,27.5-185.4-6.9-227.3Z"/>
      </g>
      <path class="st5" d="M837.3,609c-12.7-5.2-23.8-12.1-32.1-22.1-.6-.8-1-1.7-1.1-2.7-26.1-378.6-575.5-374-604.8,0,0,1-.5,1.9-1.1,2.6-8.4,10-19.5,16.9-32.1,22.1-2.8,1.1-3.9,4.4-2.4,7l19.2,34c1.1,1.9.6,4.4-1,5.8l-14.9,12.6c-1.7,1.5-2.2,3.9-1.3,6,10.9,22.7,27.1,37.4,48.3,44.2,181.9,149.9,373.1,159.2,575.4,0,23.5-8.7,41.2-22.3,48.9-44.4.7-1.9,0-4.1-1.5-5.4l-15.2-12.8c-1.7-1.4-2.1-3.9-1-5.8l19.2-34c1.5-2.6.3-5.9-2.4-7Z"/>
      <path class="st2" d="M502.5,460.9c22.9-39.2,28.1-52.4,28.1-157.9-19.2-1.4-38.1-1.4-56.5.4,0,103.2,5.1,118.2,28,157.5h.4Z"/>
      <path class="st2" d="M413.4,314.9c-1.2,38.4,3.8,74,13.5,108,.7,2.3-2,4.2-3.9,2.7-25.7-18.9-42.3-54-45.4-97.9,10.5-4.6,22.7-8.8,35.8-12.8Z"/>
      <path class="st2" d="M595.2,314.9c1.2,38.4-3.8,74-13.5,108-.7,2.3,2,4.2,3.9,2.7,25.7-18.9,42.3-54,45.4-97.9-10.5-4.6-22.7-8.8-35.8-12.8Z"/>
      <path class="st4" d="M307,782.3c49.1-201.2,332.1-206.2,388.8-1.7-136.1,72.4-265.3,69.7-388.8,1.7Z"/>
      <g>
        <g>
          <path class="st6" d="M502.4,707.6c-1.3,0-2.3-1-2.3-2.3v-73.5c0-1.3,1-2.3,2.3-2.3s2.3,1,2.3,2.3v73.5c0,1.3-1,2.3-2.3,2.3Z"/>
          <path class="st6" d="M485.1,718.9c-.9,0-1.8,0-2.7-.2-9.3-1.4-18.9-9.9-18.5-23.1,0-1.3,1.1-2.3,2.4-2.2,1.3,0,2.3,1.1,2.2,2.4-.4,10.5,7.2,17.3,14.6,18.4,6.2.9,13.9-2.2,16.9-13.5.3-1.2,1.6-2,2.8-1.6,1.2.3,2,1.6,1.6,2.8-3.4,12.7-12,17.1-19.3,17.1Z"/>
          <path class="st6" d="M519.5,718.9c-7.4,0-16-4.4-19.3-17.1-.3-1.2.4-2.5,1.6-2.8,1.2-.3,2.5.4,2.8,1.6,3,11.4,10.7,14.4,16.9,13.5,7.3-1.1,14.9-7.9,14.6-18.4,0-1.3.9-2.3,2.2-2.4,1.3,0,2.3.9,2.4,2.2.5,13.2-9.2,21.8-18.5,23.1-.9.1-1.8.2-2.7.2Z"/>
        </g>
        <path class="st6" d="M541.2,636.5c-5.8-9.5-21.3-11.4-39-11.3-17.7,0-33.2,2.2-38.9,11.7-1.6,2.6-1.7,5.9-.4,8.7,3.9,8.2,10.7,14.2,20.4,23.5,2.9,2.7,6.2,5,9.9,6.6,3.1,1.3,6.2,2.1,9.2,2,3,0,6.1-.7,9.2-2.1,3.7-1.6,7-3.9,9.8-6.7,9.7-9.4,16.4-15.5,20.2-23.7,1.3-2.8,1.1-6.1-.5-8.7Z"/>
        <path class="st10" d="M505.8,637.8c1.1,4.3-5.3,9.6-14.3,11.9-9,2.3-17.2.8-18.3-3.5-1.1-4.3,5.3-9.6,14.3-11.9,9-2.3,17.2-.8,18.3,3.5Z"/>
      </g>
      <ellipse class="st6" cx="406" cy="545.1" rx="24.3" ry="33.5"/>
      <path class="st0" d="M409.2,531.9c0,4.4-3.6,8-8,8s-8-3.6-8-8,3.6-8,8-8,8,3.6,8,8Z"/>
      <ellipse class="st6" cx="598.5" cy="545.1" rx="24.3" ry="33.5"/>
      <path class="st0" d="M601.7,531.9c0,4.4-3.6,8-8,8s-8-3.6-8-8,3.6-8,8-8,8,3.6,8,8Z"/>
      <path class="st3" d="M840.5,616c1.5-2.6.3-5.9-2.4-7-12.7-5.2-23.8-12.1-32.1-22.1-.6-.8-1-1.7-1.1-2.7-.2-3.3-.5-6.5-.8-9.7-50.4,102.5-166.4,174.3-301.6,174.3s-251.1-71.7-301.5-174.1c-.3,3.1-.6,6.3-.9,9.5,0,1-.5,1.9-1.1,2.6-8.4,10-19.5,16.9-32.1,22.1-2.8,1.1-3.9,4.4-2.4,7l19.2,34c1.1,1.9.6,4.4-1,5.8l-14.9,12.6c-1.7,1.5-2.2,3.9-1.3,6,10.9,22.7,27.1,37.4,48.3,44.2,181.9,149.9,373.1,159.2,575.4,0,23.5-8.7,41.2-22.3,48.9-44.4.7-1.9,0-4.1-1.5-5.4l-15.2-12.8c-1.7-1.4-2.1-3.9-1-5.8l19.2-34Z"/>
    </g>
    <g>
      <path class="st7" d="M427.3,652c-19.2-2.8-38.6-4.6-58.1-4.9-19.4-.3-38.9.8-58.2,3.7-19.3,2.8-38.3,7.4-56.8,13.4-18.5,6.1-36.5,13.7-54,22.4,17.3-9,35.2-16.9,53.7-23.2,18.5-6.4,37.5-11.2,56.8-14.3,19.3-3.1,38.9-4.6,58.5-4.6,19.6,0,39.1,1.5,58.5,4.1.9.1,1.6,1,1.5,1.9-.1.9-1,1.6-1.9,1.5,0,0,0,0,0,0Z"/>
      <path class="st7" d="M440.8,672.4c-19.4-2.8-39.2-3.6-58.8-2.4-19.7,1.2-39.2,4.2-58.3,9.1-19.1,4.9-37.8,11.6-55.6,20.1-17.8,8.5-34.8,18.8-50.3,31,15.4-12.4,32.2-23,50-31.8,17.7-8.8,36.4-15.8,55.5-21,19.1-5.2,38.8-8.6,58.6-10,19.8-1.5,39.8-1,59.5,1.6.9.1,1.6,1,1.5,1.9-.1.9-1,1.6-1.9,1.5,0,0,0,0,0,0Z"/>
      <path class="st7" d="M431,694c-19.9-.5-39.8,1.2-59.3,4.8-19.6,3.6-38.8,9.1-57.4,16.3-18.6,7.3-36.5,16.2-53.2,27-8.4,5.4-16.5,11.3-24.1,17.7-7.7,6.4-14.9,13.3-21.6,20.8,6.5-7.6,13.7-14.6,21.3-21.1,7.6-6.5,15.6-12.5,24-18,16.7-11.1,34.5-20.4,53.1-27.9,18.6-7.6,37.8-13.4,57.5-17.3,19.7-3.9,39.8-5.9,59.9-5.7,1,0,1.7.8,1.7,1.7,0,1-.8,1.7-1.7,1.7,0,0,0,0,0,0h0Z"/>
    </g>
    <g>
      <path class="st7" d="M572.7,652c19.2-2.8,38.6-4.6,58.1-4.9,19.4-.3,38.9.8,58.2,3.7,19.3,2.8,38.3,7.4,56.8,13.4,18.5,6.1,36.5,13.7,54,22.4-17.3-9-35.2-16.9-53.7-23.2-18.5-6.4-37.5-11.2-56.8-14.3-19.3-3.1-38.9-4.6-58.5-4.6-19.6,0-39.1,1.5-58.5,4.1-.9.1-1.6,1-1.5,1.9.1.9,1,1.6,1.9,1.5,0,0,0,0,0,0Z"/>
      <path class="st7" d="M559.3,672.4c19.4-2.8,39.2-3.6,58.8-2.4,19.7,1.2,39.2,4.2,58.3,9.1,19.1,4.9,37.8,11.6,55.6,20.1,17.8,8.5,34.8,18.8,50.3,31-15.4-12.4-32.2-23-50-31.8-17.7-8.8-36.4-15.8-55.5-21-19.1-5.2-38.8-8.6-58.6-10-19.8-1.5-39.8-1-59.5,1.6-.9.1-1.6,1-1.5,1.9.1.9,1,1.6,1.9,1.5,0,0,0,0,0,0Z"/>
      <path class="st7" d="M569.1,694c19.9-.5,39.8,1.2,59.3,4.8,19.6,3.6,38.8,9.1,57.4,16.3,18.6,7.3,36.5,16.2,53.2,27,8.4,5.4,16.5,11.3,24.1,17.7,7.7,6.4,14.9,13.3,21.6,20.8-6.5-7.6-13.7-14.6-21.3-21.1-7.6-6.5-15.6-12.5-24-18-16.7-11.1-34.5-20.4-53.1-27.9-18.6-7.6-37.8-13.4-57.5-17.3-19.7-3.9-39.8-5.9-59.9-5.7-1,0-1.7.8-1.7,1.7,0,1,.8,1.7,1.7,1.7,0,0,0,0,0,0h0Z"/>
    </g>
  </g>
</svg>