<?xml version="1.0" encoding="UTF-8"?>
<svg id="Layer_1" xmlns="http://www.w3.org/2000/svg" version="1.1" viewBox="0 0 1000 1000">
  <!-- Generator: Adobe Illustrator 30.0.0, SVG Export Plug-In . SVG Version: 2.1.1 Build 123)  -->
  <defs>
    <style>
      .st0 {
        fill: #603913;
      }

      .st1 {
        fill: #f8a15f;
      }

      .st2 {
        fill: #8f6736;
      }

      .st3 {
        fill: #efd4b4;
      }

      .st4 {
        fill: #fff;
      }

      .st5 {
        fill: #f0c2cf;
      }

      .st6 {
        fill: #603912;
      }

      .st7 {
        fill: #613912;
      }

      .st8 {
        fill: #e56325;
      }

      .st9 {
        fill: #f7801a;
      }

      .st10 {
        fill: #fbe4c4;
      }
    </style>
  </defs>
  <circle class="st5" cx="499.5" cy="500.1" r="483.4"/>
  <g>
    <g>
      <path class="st9" d="M307.9,329.7c-3.8-58.3-36.1-92-81.5-87.3-9.1,1-20.6,3.6-28.7,8-41.7,22.2-63.1,56.1-61.1,98.7.5,10.4,3.5,20.5,8.8,29.5,18.8,32,52.9,53.7,99.8,65.2l62.7-114.1Z"/>
      <path class="st6" d="M294.1,340.2c-2.7-41.4-25.6-65.3-57.9-62-6.5.7-14.6,2.6-20.3,5.7-29.6,15.8-44.8,39.8-43.4,70.1.4,7.4,2.5,14.6,6.2,20.9,13.3,22.7,37.5,38.1,70.9,46.3l44.5-81Z"/>
      <g>
        <path class="st1" d="M216.5,266.8c.6,3.8-3.8,7.6-9.9,8.6-6.1,1-11.5-1.3-12.1-5-.6-3.8,3.8-7.6,9.9-8.6,6.1-1,11.5,1.3,12.1,5Z"/>
        <path class="st1" d="M187.2,273.7c3.2,2.1-.7,13.9-8.8,26.4-8.1,12.5-17.2,21-20.4,19-3.2-2.1.7-13.9,8.8-26.4,8.1-12.5,17.2-21,20.4-19Z"/>
      </g>
    </g>
    <g>
      <path class="st9" d="M675.5,336.9c3.8-58.3,36.1-92,81.5-87.3,9.1,1,20.6,3.6,28.7,8,41.7,22.2,63.1,56.1,61.1,98.7-.5,10.4-3.5,20.5-8.8,29.5-18.8,32-52.9,53.7-99.8,65.2l-62.7-114.1Z"/>
      <path class="st6" d="M689.4,347.4c2.7-41.4,25.6-65.3,57.9-62,6.5.7,14.6,2.6,20.3,5.7,29.6,15.8,44.8,39.8,43.4,70.1-.4,7.4-2.5,14.6-6.2,20.9-13.3,22.7-37.5,38.1-70.9,46.3l-44.5-81Z"/>
      <g>
        <path class="st1" d="M766.9,274c-.6,3.8,3.8,7.6,9.9,8.6,6.1,1,11.5-1.3,12.1-5,.6-3.8-3.8-7.6-9.9-8.6-6.1-1-11.5,1.3-12.1,5Z"/>
        <path class="st1" d="M796.3,280.8c-3.2,2.1.7,13.9,8.8,26.4,8.1,12.5,17.2,21,20.4,19s-.7-13.9-8.8-26.4c-8.1-12.5-17.2-21-20.4-19Z"/>
      </g>
    </g>
    <path class="st9" d="M792.7,485c-96.7-132.6-55.6-268.7-291.2-268.7s-194.4,136.1-291.2,268.7c-145,187.9,94.1,305.7,291.2,310.1,197.1-4.3,436.2-122.2,291.2-310.1Z"/>
    <path class="st10" d="M823.1,530.6c2.8,77.2-53.4,133.9-125.5,118.9-18.4-3.8-35-13.3-48.1-26.7-34.2-34.8-83.3-54.1-149.8-55.1-66.5,1-115.6,20.3-149.8,55.1-13.1,13.4-29.8,22.9-48.1,26.7-72.1,15-125.3-38-122.5-115.2-58.7,133.5,69,252.2,320.5,263.2,254.8-8.5,386.7-130.6,323.5-266.9Z"/>
    <path class="st3" d="M499.3,767.3c-200.7-8.8-322.6-86.2-333.7-184.9-12.4,112.8,113,205.5,333.7,215.1,222.1-7.4,350.9-101.1,338.3-215.4-11.3,100.2-136.1,178.4-338.3,185.2Z"/>
    <g>
      <ellipse class="st6" cx="359.6" cy="481.3" rx="27.8" ry="38.3"/>
      <path class="st4" d="M363.3,466.1c0,5.1-4.1,9.2-9.2,9.2s-9.2-4.1-9.2-9.2,4.1-9.2,9.2-9.2,9.2,4.1,9.2,9.2Z"/>
    </g>
    <g>
      <ellipse class="st6" cx="648.7" cy="481.3" rx="27.8" ry="38.3"/>
      <circle class="st4" cx="643.2" cy="466.1" r="9.2"/>
    </g>
    <path class="st8" d="M547.6,542.4c19.2-8.5,31.3-25.1,38.6-47,4,5.9.1,53.1-12.3,70.4l-26.3-23.4Z"/>
    <g>
      <path class="st0" d="M504.1,686.4c-1.3,0-2.4-1.1-2.4-2.4v-113.9c0-1.3,1.1-2.4,2.4-2.4s2.4,1.1,2.4,2.4v113.9c0,1.3-1.1,2.4-2.4,2.4Z"/>
      <path class="st0" d="M479.6,702.6c-1.3,0-2.6,0-3.9-.3-13-1.9-26.4-13.9-25.8-32.3,0-1.3,1.2-2.4,2.5-2.3,1.3,0,2.4,1.2,2.3,2.5-.5,15.6,10.7,25.7,21.6,27.3,9.3,1.4,20.7-3.2,25.2-20,.3-1.3,1.7-2.1,3-1.7,1.3.3,2.1,1.7,1.7,3-2.3,8.6-6.6,15.3-12.4,19.4-4.2,2.9-9.2,4.5-14.3,4.5Z"/>
      <path class="st0" d="M528.5,702.6c-5.2,0-10.1-1.5-14.3-4.5-5.8-4.1-10.1-10.8-12.4-19.4-.3-1.3.4-2.6,1.7-3,1.3-.3,2.6.4,3,1.7,4.5,16.8,15.9,21.4,25.2,20,10.9-1.6,22.1-11.7,21.6-27.3,0-1.3,1-2.5,2.3-2.5,1.4,0,2.5,1,2.5,2.3.6,18.4-12.8,30.3-25.8,32.3-1.3.2-2.6.3-3.9.3Z"/>
    </g>
    <g>
      <path class="st6" d="M573.2,558c-10.7-17.4-39.2-21-71.8-20.8-32.6.2-61.1,4-71.5,21.5-2.9,4.9-3.2,10.9-.8,16,7.1,15.1,19.6,26.2,37.6,43.3,5.3,5.1,11.5,9.2,18.2,12.1,5.8,2.5,11.5,3.8,16.9,3.7,5.5,0,11.1-1.3,16.9-3.9,6.7-2.9,12.8-7.2,18.1-12.3,17.8-17.3,30.2-28.5,37.2-43.7,2.4-5.2,2-11.2-.9-16Z"/>
      <ellipse class="st2" cx="477.9" cy="568.2" rx="30.9" ry="14.7" transform="translate(-127.4 138.2) rotate(-14.5)"/>
    </g>
    <path class="st7" d="M497.6,232c-32.4,30.6-187.7-.6-210.4,172.2,52.4-131.2,144.7-93.7,211.4-134.8,1.9-1.1,4.2-1.1,6,0,66.7,41.1,159,3.6,211.4,134.8-22.7-172.8-178-141.6-210.4-172.2-2.2-2.1-5.7-2.1-7.9,0Z"/>
    <path class="st7" d="M496.9,302.8c-38.6,56-138.2,52.5-150.6,98.8,51.8-34.5,109.5-6.4,150.7-62.7,2.3-3.1,6.9-3.1,9.2,0,41.2,56.3,98.9,28.2,150.7,62.7-12.4-46.3-112-42.8-150.6-98.8-2.3-3.3-7.1-3.3-9.4,0Z"/>
  </g>
</svg>