<?xml version="1.0" encoding="UTF-8"?>
<svg id="Layer_1" xmlns="http://www.w3.org/2000/svg" version="1.1" xmlns:xlink="http://www.w3.org/1999/xlink" viewBox="0 0 1000 1000">
  <!-- Generator: Adobe Illustrator 30.0.0, SVG Export Plug-In . SVG Version: 2.1.1 Build 123)  -->
  <defs>
    <style>
      .st0 {
        fill: #825537;
      }

      .st1 {
        fill: #754c29;
      }

      .st2 {
        fill: #fff;
      }

      .st3 {
        fill: none;
      }

      .st4 {
        clip-path: url(#clippath-1);
      }

      .st5 {
        fill: #96694b;
      }

      .st6 {
        fill: #fdb8c8;
      }

      .st7 {
        fill: #414042;
      }

      .st8 {
        fill: #8b5e3c;
      }

      .st9 {
        clip-path: url(#clippath);
      }

      .st10 {
        fill: #e6e7e8;
      }

      .st11 {
        fill: #707070;
      }

      .st12 {
        fill: #d1d3d4;
      }
    </style>
    <clipPath id="clippath">
      <path class="st3" d="M362,197.8c-13.8,48.2,31.3,83.4,43.7,119.7,3.7,10.9,2.2,23-4.4,32.4-11.3,16.1-32.6,26.1-52.7,26.6-11.1.3-21.7-4.7-28.8-13.2-49.1-59.1-25.8-138.1,39-168.3,1.8-.9,3.8.8,3.3,2.8Z"/>
    </clipPath>
    <clipPath id="clippath-1">
      <path class="st3" d="M626.7,197.8c13.8,48.2-31.3,83.4-43.7,119.7-3.7,10.9-2.2,23,4.4,32.4,11.3,16.1,32.6,26.1,52.7,26.6,11.1.3,21.7-4.7,28.8-13.2,49.1-59.1,25.8-138.1-39-168.3-1.8-.9-3.8.8-3.3,2.8Z"/>
    </clipPath>
  </defs>
  <path class="st6" d="M16.1,500.1C16.1,233.1,232.6,16.7,499.5,16.7s483.4,216.4,483.4,483.4"/>
  <path class="st6" d="M983,500.1c0,267-216.4,483.4-483.4,483.4S16.1,767.1,16.1,500.1"/>
  <g>
    <g>
      <path class="st10" d="M290,517.9v-137.8c-55.8-17.1-98.1-11.9-129.5,11.1-.8,56.1,52.2,95.3,129.5,126.8Z"/>
      <path class="st12" d="M290,419.1v61.4c-46.7-20.4-81.8-45.7-96.9-83.3l96.9,21.9Z"/>
      <path class="st2" d="M290,437.2v-57.1c-55.8-17-98-11.9-129.5,11,35.5,5.7,100.5,30.7,129.5,46.1Z"/>
    </g>
    <g>
      <path class="st10" d="M712.3,517.9v-137.8c55.8-17.1,98.1-11.9,129.5,11.1.8,56.1-52.2,95.3-129.5,126.8Z"/>
      <path class="st12" d="M712.4,419.1v61.4c46.7-20.4,81.8-45.7,96.9-83.3l-96.9,21.9Z"/>
      <path class="st2" d="M712.4,437.2v-57.1c55.8-17,98-11.9,129.5,11-35.5,5.7-100.5,30.7-129.5,46.1Z"/>
    </g>
    <path class="st2" d="M736.6,605.1c-3-5.7-5.4-15.6-5.4-22v-125.5c0-17.4-1.8-34.9-5.8-51.9-25-107-138-136.1-222.6-136.1s-197.5,29.1-222.6,136.1c-4,17-5.8,34.4-5.8,51.9v125.5c0,6.4-2.4,16.3-5.4,22-44.3,84.6-2.7,160.6,91.7,179.1,6.4,1.3,12.3,4.5,16.9,9.2,37.1,37.3,78.2,59.8,125.1,60.3,47-.5,88-23.1,125.1-60.3,4.6-4.7,10.5-7.9,16.9-9.2,94.4-18.5,136-94.5,91.7-179.1Z"/>
    <path class="st10" d="M645.1,739.8c-6.4,1.3-12.3,4.5-16.9,9.2-37.1,37.3-78.2,59.8-125.1,60.3-47-.5-88-23.1-125.1-60.3-4.6-4.7-10.5-7.9-16.9-9.2-59.4-11.7-97.9-46.1-107.2-91.2-12.5,66,29.4,120.4,107.2,135.7,6.4,1.3,12.3,4.5,16.9,9.2,37.1,37.3,78.2,59.8,125.1,60.3,47-.5,88-23.1,125.1-60.3,4.6-4.7,10.5-7.9,16.9-9.2,77.8-15.3,119.8-69.6,107.2-135.7-9.3,45.1-47.8,79.5-107.2,91.2Z"/>
    <path class="st2" d="M598.7,287.8c-40.3-17.2-75.6-46.7-97.6-108.4-16.3,21.8-23.2,48.1-21.5,78.6-32.1-7.3-60.9-34-88.5-68.7-1.4,9.6-2.2,19-2,28.1.5,24.6,9.8,48.2,25.7,66.9l32.5,38.3,151.4-34.8Z"/>
    <path class="st12" d="M406.8,273.6c3.7,4.8,7.3,9.5,11.3,13.8,4,4.4,8.2,8.5,12.6,12.3,4.5,3.8,9.2,7.3,14.1,10.6,4.9,3.3,10,6.3,15.3,9.3-5.9-1.4-11.5-3.7-16.9-6.5-5.4-2.8-10.5-6.3-15.1-10.2-4.6-4-8.8-8.4-12.4-13.4-3.6-4.9-6.6-10.2-8.8-15.9Z"/>
    <g>
      <ellipse class="st12" cx="362.9" cy="346" rx="52" ry="32.1" transform="translate(-95.4 142.6) rotate(-19.7)"/>
      <g>
        <path class="st8" d="M362,197.8c-13.8,48.2,31.3,83.4,43.7,119.7,3.7,10.9,2.2,23-4.4,32.4-11.3,16.1-32.6,26.1-52.7,26.6-11.1.3-21.7-4.7-28.8-13.2-49.1-59.1-25.8-138.1,39-168.3,1.8-.9,3.8.8,3.3,2.8Z"/>
        <path class="st5" d="M325,363.3c-48.5-58.5-26.3-136.3,36.8-167.2-.5-1.1-1.9-1.7-3.1-1.1-64.8,30.2-88.2,109.2-39,168.3,7.1,8.6,17.7,13.5,28.8,13.2.7,0,1.4,0,2,0-9.9-.7-19.1-5.5-25.5-13.2Z"/>
        <path class="st0" d="M405.7,317.5c-12.4-36.4-57.5-71.5-43.7-119.7.6-1.9-1.4-3.6-3.3-2.8-3.7,1.7-7.3,3.6-10.7,5.6,0,.1,0,.3,0,.5-13.8,48.2,31.3,83.4,43.7,119.7,3.7,10.9,2.2,23-4.4,32.4-7.4,10.5-19,18.4-31.7,22.8,18-2.3,35.8-11.8,45.8-26.1,6.6-9.4,8.1-21.5,4.4-32.4Z"/>
        <g class="st9">
          <g>
            <path class="st1" d="M339.3,225.6c-.7,0-1.4,0-1.9,0-24.1-.2-26.7-3.4-27.6-4.4l5.2-4.4c-.2-.2-.3-.3-.3-.3,1.3.8,8.9,2.2,23.6,2.2,13.6,0,22.2-1.1,23.6-1.8-.7.4-1.6,1.8-.9,3.4l6.3-2.7c.7,1.6.4,3.8-1.8,5.1-4.1,2.5-19.3,2.8-26.2,2.8Z"/>
            <path class="st1" d="M315.8,283.1c-25.2,0-27.4-6-28.2-8.1l6.4-2.4h0c1.1,2,13.2,5,37.5,2.9,10.9-.9,21.8-2.7,29.9-4.9,12.2-3.3,13.5-6.2,13.5-6.2,0,0,0,.1,0,.2l6.7-1.4c1.7,8.2-12.5,12.3-17.1,13.6-12,3.4-29.7,5.8-45,6.2-1.3,0-2.5,0-3.7,0Z"/>
            <path class="st1" d="M329.3,342.4c-12.4,0-25.4-1.7-39.3-5.2l1.7-6.6c47.2,11.9,85.3,2.5,113.4-28l5,4.6c-21.6,23.5-48.7,35.2-80.9,35.2Z"/>
          </g>
        </g>
      </g>
    </g>
    <g>
      <ellipse class="st12" cx="625.7" cy="346" rx="32.1" ry="52" transform="translate(89.1 818.5) rotate(-70.3)"/>
      <g>
        <path class="st8" d="M626.7,197.8c13.8,48.2-31.3,83.4-43.7,119.7-3.7,10.9-2.2,23,4.4,32.4,11.3,16.1,32.6,26.1,52.7,26.6,11.1.3,21.7-4.7,28.8-13.2,49.1-59.1,25.8-138.1-39-168.3-1.8-.9-3.8.8-3.3,2.8Z"/>
        <path class="st5" d="M663.6,363.3c48.5-58.5,26.3-136.3-36.8-167.2.5-1.1,1.9-1.7,3.1-1.1,64.8,30.2,88.2,109.2,39,168.3-7.1,8.6-17.7,13.5-28.8,13.2-.7,0-1.4,0-2,0,9.9-.7,19.1-5.5,25.5-13.2Z"/>
        <path class="st0" d="M583,317.5c12.4-36.4,57.5-71.5,43.7-119.7-.6-1.9,1.4-3.6,3.3-2.8,3.7,1.7,7.3,3.6,10.7,5.6,0,.1,0,.3,0,.5,13.8,48.2-31.3,83.4-43.7,119.7-3.7,10.9-2.2,23,4.4,32.4,7.4,10.5,19,18.4,31.7,22.8-18-2.3-35.8-11.8-45.8-26.1-6.6-9.4-8.1-21.5-4.4-32.4Z"/>
        <g class="st4">
          <g>
            <path class="st1" d="M649.4,225.6c.7,0,1.4,0,1.9,0,24.1-.2,26.7-3.4,27.6-4.4l-5.2-4.4c.2-.2.3-.3.3-.3-1.3.8-8.9,2.2-23.6,2.2-13.6,0-22.2-1.1-23.6-1.8.7.4,1.6,1.8.9,3.4l-6.3-2.7c-.7,1.6-.4,3.8,1.8,5.1,4.1,2.5,19.3,2.8,26.2,2.8Z"/>
            <path class="st1" d="M672.8,283.1c25.2,0,27.4-6,28.2-8.1l-6.4-2.4h0c-1.1,2-13.2,5-37.5,2.9-10.9-.9-21.8-2.7-29.9-4.9-12.2-3.3-13.5-6.2-13.5-6.2,0,0,0,.1,0,.2l-6.7-1.4c-1.7,8.2,12.5,12.3,17.1,13.6,12,3.4,29.7,5.8,45,6.2,1.3,0,2.5,0,3.7,0Z"/>
            <path class="st1" d="M659.4,342.4c12.4,0,25.4-1.7,39.3-5.2l-1.7-6.6c-47.2,11.9-85.3,2.5-113.4-28l-5,4.6c21.6,23.5,48.7,35.2,80.9,35.2Z"/>
          </g>
        </g>
      </g>
    </g>
    <ellipse class="st7" cx="398.4" cy="512.8" rx="26.2" ry="36.1"/>
    <circle class="st2" cx="393.2" cy="498.5" r="8.6"/>
    <ellipse class="st7" cx="595.9" cy="512.8" rx="26.2" ry="36.1"/>
    <circle class="st2" cx="590.7" cy="498.5" r="8.6"/>
    <g>
      <g>
        <path class="st7" d="M501.1,684.7c-1.4,0-2.5-1.1-2.5-2.5v-47.6c0-1.4,1.1-2.5,2.5-2.5s2.5,1.1,2.5,2.5v47.6c0,1.4-1.1,2.5-2.5,2.5Z"/>
        <path class="st7" d="M482.1,697.1c-1,0-2,0-2.9-.2-10.2-1.5-20.8-10.9-20.3-25.4,0-1.4,1.2-2.5,2.6-2.4,1.4,0,2.5,1.2,2.4,2.6-.4,11.6,7.9,19.1,16,20.2,6.8,1,15.3-2.4,18.6-14.9.4-1.3,1.7-2.2,3.1-1.8,1.3.4,2.2,1.7,1.8,3.1-3.7,14-13.2,18.8-21.3,18.8Z"/>
        <path class="st7" d="M519.9,697.1c-8.1,0-17.6-4.8-21.3-18.8-.4-1.3.4-2.7,1.8-3.1,1.3-.4,2.7.4,3.1,1.8,3.3,12.5,11.8,15.9,18.6,14.9,8.1-1.2,16.4-8.7,16-20.2,0-1.4,1-2.6,2.4-2.6,1.4,0,2.6,1,2.6,2.4.5,14.5-10.1,23.9-20.3,25.4-.9.1-1.9.2-2.9.2Z"/>
      </g>
      <path class="st7" d="M543.8,598c-6.4-10.4-23.4-12.5-42.9-12.4-19.5.1-36.5,2.4-42.7,12.9-1.7,2.9-1.9,6.5-.5,9.6,4.3,9,11.7,15.7,22.5,25.9,3.2,3,6.8,5.5,10.9,7.2,3.5,1.5,6.8,2.3,10.1,2.2,3.3,0,6.7-.8,10.1-2.3,4-1.8,7.7-4.3,10.8-7.3,10.6-10.3,18-17,22.2-26.1,1.4-3.1,1.2-6.7-.6-9.6Z"/>
      <path class="st11" d="M504.8,599.4c1.2,4.7-5.8,10.6-15.7,13.1-9.9,2.6-18.9.8-20.1-3.8-1.2-4.7,5.8-10.6,15.7-13.1,9.9-2.6,18.9-.8,20.1,3.8Z"/>
    </g>
    <path class="st8" d="M441.2,454.2c0,.1-.2.2-.2.3-3.9,5.2-10.4,7.9-16.9,7.4-26.9-2-52.9-10.2-78-23.4-5.1-2.7-3.7-10.5,2.1-11.1,29.7-3.5,58.8-.8,87.4,9.1,7.4,2.5,10.3,11.5,5.7,17.8Z"/>
    <path class="st8" d="M546,454.2c0,.1.2.2.2.3,3.9,5.2,10.4,7.9,16.9,7.4,26.9-2,52.9-10.2,78-23.4,5.1-2.7,3.7-10.5-2.1-11.1-29.7-3.5-58.8-.8-87.4,9.1-7.4,2.5-10.3,11.5-5.7,17.8Z"/>
  </g>
</svg>